HIERARCHY
ROOT Hips
{
	OFFSET -0.001795 -0.223333 0.028219
	CHANNELS 6 Xposition Yposition Zposition Zrotation Yrotation Xrotation 
	JOINT LeftUpLeg
	{
		OFFSET 0.069520 -0.091406 -0.006815
		CHANNELS 3 Zrotation Yrotation Xrotation
		JOINT LeftLeg
		{
			OFFSET 0.034277 -0.375199 -0.004496
			CHANNELS 3 Zrotation Yrotation Xrotation
			JOINT LeftFoot
			{
				OFFSET -0.013596 -0.397961 -0.043693
				CHANNELS 3 Zrotation Yrotation Xrotation
				JOINT LeftToe
				{
					OFFSET 0.026358 -0.055791 0.119288
					CHANNELS 3 Zrotation Yrotation Xrotation
					End Site
					{
						OFFSET 0.000000 0.000000 0.000000
					}
				}
			}
		}
	}
	JOINT RightUpLeg
	{
		OFFSET -0.067670 -0.090522 -0.004320
		CHANNELS 3 Zrotation Yrotation Xrotation
		JOINT RightLeg
		{
			OFFSET -0.038290 -0.382569 -0.008850
			CHANNELS 3 Zrotation Yrotation Xrotation
			JOINT RightFoot
			{
				OFFSET 0.015774 -0.398415 -0.042312
				CHANNELS 3 Zrotation Yrotation Xrotation
				JOINT RightToe
				{
					OFFSET -0.025372 -0.048144 0.123348
					CHANNELS 3 Zrotation Yrotation Xrotation
					End Site
					{
						OFFSET 0.000000 0.000000 0.000000
					}
				}
			}
		}
	}
	JOINT Spine
	{
		OFFSET -0.002533 0.108963 -0.026696
		CHANNELS 3 Zrotation Yrotation Xrotation
		JOINT Spine1
		{
			OFFSET 0.005487 0.135180 0.001092
			CHANNELS 3 Zrotation Yrotation Xrotation
			JOINT Spine2
			{
				OFFSET 0.001457 0.052922 0.025425
				CHANNELS 3 Zrotation Yrotation Xrotation
				JOINT Neck
				{
					OFFSET -0.002778 0.213870 -0.042857
					CHANNELS 3 Zrotation Yrotation Xrotation
					JOINT Head
					{
						OFFSET 0.005152 0.064970 0.051349
						CHANNELS 3 Zrotation Yrotation Xrotation
						End Site
						{
							OFFSET 0.000000 0.000000 0.000000
						}
					}
				}
				JOINT LeftShoulder
				{
					OFFSET 0.078845 0.121749 -0.034090
					CHANNELS 3 Zrotation Yrotation Xrotation
					JOINT LeftArm
					{
						OFFSET 0.090977 0.030469 -0.008868
						CHANNELS 3 Zrotation Yrotation Xrotation
						JOINT LeftForeArm
						{
							OFFSET 0.259612 -0.012772 -0.027456
							CHANNELS 3 Zrotation Yrotation Xrotation
							JOINT LeftHand
							{
								OFFSET 0.249234 0.008986 -0.001171
								CHANNELS 3 Zrotation Yrotation Xrotation
								End Site
								{
									OFFSET 0.000000 0.000000 0.000000
								}
							}
						}
					}
				}
				JOINT RightShoulder
				{
					OFFSET -0.081759 0.118833 -0.038615
					CHANNELS 3 Zrotation Yrotation Xrotation
					JOINT RightArm
					{
						OFFSET -0.096012 0.032551 -0.009143
						CHANNELS 3 Zrotation Yrotation Xrotation
						JOINT RightForeArm
						{
							OFFSET -0.253742 -0.013329 -0.021401
							CHANNELS 3 Zrotation Yrotation Xrotation
							JOINT RightHand
							{
								OFFSET -0.255298 0.007772 -0.005559
								CHANNELS 3 Zrotation Yrotation Xrotation
								End Site
								{
									OFFSET 0.000000 0.000000 0.000000
								}
							}
						}
					}
				}
			}
		}
	}
}
MOTION
Frames: 5
Frame Time: 0.050000
-0.002524 0.907591 0.051378 2.519543 -2.891324 1.885685 7.579351 -0.355669 -12.262127 11.956390 -5.002000 26.983842 -11.384084 -20.841955 4.498305 0.000000 0.000000 0.000000 -6.855645 0.769905 -12.860396 0.573287 1.793607 37.627667 -5.022659 -11.565164 -3.726552 0.000000 0.000000 0.000000 -1.302539 -0.200311 8.273776 -3.531184 1.412689 -26.636747 1.889258 -9.410917 18.375974 -6.184134 3.316940 -29.679378 0.000000 0.000000 0.000000 -3.382253 -2.927704 1.417340 -37.947756 -55.442700 14.597201 119.620745 -24.489211 -29.753889 0.000000 0.000000 0.000000 -7.292292 4.161711 2.378777 24.673447 50.808081 3.536874 -120.227363 22.291048 -37.978682 0.000000 0.000000 0.000000 
-0.004193 0.893345 0.052812 1.971237 -3.306632 1.049407 8.769172 -0.199341 -11.705712 12.748950 -5.559598 29.064350 -10.477525 -22.483188 0.496058 0.000000 0.000000 0.000000 -6.674604 0.812266 -13.510388 1.116509 1.830228 40.987126 -5.084651 -10.656743 -7.249135 0.000000 0.000000 0.000000 -0.637301 -0.275019 8.817940 -4.108408 1.538089 -27.193218 1.788533 -9.675323 18.096811 -5.478257 2.889626 -29.268643 0.000000 0.000000 0.000000 -4.109869 -2.244371 1.217565 -39.534815 -54.351699 14.885459 122.528483 -26.010296 -33.867707 0.000000 0.000000 0.000000 -7.430307 3.647727 2.305060 26.154940 50.745370 3.998441 -122.165725 23.440685 -41.442797 0.000000 0.000000 0.000000 
-0.005894 0.878200 0.052008 1.753974 -5.112750 0.638296 10.122126 0.014017 -11.967465 11.441018 -5.367745 33.126904 -7.532210 -21.172334 -5.547477 0.000000 0.000000 0.000000 -6.653889 0.938755 -15.125693 2.215702 1.900442 44.947481 -5.241263 -9.517747 -11.102913 0.000000 0.000000 0.000000 -0.573593 -0.273825 8.936081 -3.592021 1.413971 -27.725283 1.447291 -9.474340 18.883780 -4.864124 2.448740 -30.446650 0.000000 0.000000 0.000000 -4.076329 -0.663503 0.605047 -40.190073 -56.136303 16.219612 123.567627 -22.974759 -29.383583 0.000000 0.000000 0.000000 -8.144617 3.006858 2.319020 25.321234 51.825692 3.508570 -121.991673 23.426071 -41.892465 0.000000 0.000000 0.000000 
-0.007188 0.874225 0.049718 1.536087 -6.768808 0.490386 10.627078 0.141815 -12.071175 10.099022 -4.779326 35.128248 -5.975969 -18.587464 -7.212626 0.000000 0.000000 0.000000 -7.151233 0.975743 -15.779668 3.694248 1.512460 45.513557 -4.768573 -6.940853 -12.530026 0.000000 0.000000 0.000000 0.593182 -0.383972 9.409578 -4.023674 1.507560 -29.353624 0.900243 -11.170393 20.313851 -5.740676 2.506857 -33.048223 0.000000 0.000000 0.000000 -3.452399 0.596801 0.141075 -39.495377 -59.055219 17.835582 121.178757 -16.527368 -16.383493 0.000000 0.000000 0.000000 -10.032327 2.673288 2.794711 25.345859 53.252702 2.763468 -122.602072 22.552308 -42.624255 0.000000 0.000000 0.000000 
-0.008462 0.890041 0.047663 1.519437 -8.713418 1.291879 10.678466 0.194409 -11.518064 8.443229 -3.705400 34.232260 -5.695325 -14.795306 -3.669727 0.000000 0.000000 0.000000 -7.041922 1.020489 -15.175044 4.090012 1.365696 41.057359 -3.561486 -3.590759 -10.482464 0.000000 0.000000 0.000000 1.001490 -0.395566 8.942594 -3.034842 1.322009 -30.074580 -0.651230 -13.324741 20.719333 -5.282111 1.851484 -34.079702 0.000000 0.000000 0.000000 -3.122576 0.892470 0.099622 -34.490185 -60.105695 16.245378 119.959678 -11.751050 -6.945396 0.000000 0.000000 0.000000 -10.521284 2.613719 3.202653 26.993552 56.793270 2.729202 -123.500871 24.579730 -47.919175 0.000000 0.000000 0.000000 
